<svg width="144" height="173" viewBox="0 0 144 173" fill="none" xmlns="http://www.w3.org/2000/svg">
<path d="M19.5215 143.056L19.9009 141.633C20.3277 140.092 20.7545 138.29 21.1101 136.654H21.205C21.6318 138.266 22.0349 140.092 22.4617 141.633L22.841 143.056H19.5215ZM24.5008 149.458H28.1997L23.339 133.998H19.1659L14.3051 149.458H17.8618L18.8102 145.783H23.5524L24.5008 149.458ZM29.493 142.297C29.493 147.49 31.6507 149.742 35.6579 149.742C39.665 149.742 41.7753 147.49 41.7753 142.297V133.998H38.4083V142.653C38.4083 145.688 37.3887 146.731 35.6579 146.731C33.927 146.731 32.9785 145.688 32.9785 142.653V133.998H29.493V142.297ZM45.2865 149.458H49.8627C54.3915 149.458 57.4264 146.968 57.4264 141.657C57.4264 136.346 54.3915 133.998 49.6493 133.998H45.2865V149.458ZM48.7957 146.636V136.82H49.4596C52.0678 136.82 53.8461 137.958 53.8461 141.657C53.8461 145.356 52.0678 146.636 49.4596 146.636H48.7957ZM60.3142 149.458H63.8234V133.998H60.3142V149.458ZM70.4578 149.458H73.9433V136.939H78.1875V133.998H66.1898V136.939H70.4578V149.458ZM86.1868 149.742C90.3599 149.742 93.2052 146.707 93.2052 141.657C93.2052 136.63 90.3599 133.714 86.1868 133.714C82.0374 133.714 79.1684 136.607 79.1684 141.657C79.1684 146.707 82.0374 149.742 86.1868 149.742ZM86.1868 146.731C84.1002 146.731 82.7487 144.763 82.7487 141.657C82.7487 138.575 84.1002 136.725 86.1868 136.725C88.297 136.725 89.6248 138.575 89.6248 141.657C89.6248 144.763 88.297 146.731 86.1868 146.731ZM99.598 136.773H101.376C103.202 136.773 104.198 137.294 104.198 138.812C104.198 140.329 103.202 141.112 101.376 141.112H99.598V136.773ZM108.371 149.458L104.886 143.269C106.522 142.534 107.636 141.088 107.636 138.812C107.636 135.136 104.933 133.998 101.661 133.998H96.0888V149.458H99.598V143.886H101.495L104.459 149.458H108.371ZM110.677 149.458H114.186V133.998H110.677V149.458ZM116.272 129.968H112.573L110.653 132.813H113.427L116.272 129.968ZM121.034 143.056L121.413 141.633C121.84 140.092 122.267 138.29 122.622 136.654H122.717C123.144 138.266 123.547 140.092 123.974 141.633L124.353 143.056H121.034ZM126.013 149.458H129.712L124.851 133.998H120.678L115.817 149.458H119.374L120.322 145.783H125.064L126.013 149.458ZM8.28461 172.458H12.8608C17.3896 172.458 20.4246 169.968 20.4246 164.657C20.4246 159.346 17.3896 156.998 12.6474 156.998H8.28461V172.458ZM11.7938 169.636V159.82H12.4577C15.0659 159.82 16.8442 160.958 16.8442 164.657C16.8442 168.356 15.0659 169.636 12.4577 169.636H11.7938ZM23.3123 172.458H33.2471V169.518H26.8215V165.961H32.0853V163.045H26.8215V159.939H33.01V156.998H23.3123V172.458ZM41.188 172.458H50.7909V169.518H44.6972V156.998H41.188V172.458ZM53.4139 172.458H56.9231V156.998H53.4139V172.458ZM60.5226 172.458H63.7472V166.791C63.7472 165.273 63.4627 163.021 63.2967 161.527H63.3916L64.6245 165.107L66.9956 171.106H68.3946L70.7894 165.107L72.046 161.527H72.1409C71.9749 163.021 71.6904 165.273 71.6904 166.791V172.458H74.9625V156.998H71.2636L68.7502 163.946L67.8255 166.649H67.7307L66.8059 163.946L64.2215 156.998H60.5226V172.458ZM78.5604 172.458H82.0696V167.218H84.2036C87.4757 167.218 90.2498 165.605 90.2498 161.978C90.2498 158.231 87.5705 156.998 84.2036 156.998H78.5604V172.458ZM82.0696 164.444V159.773H83.9902C85.8396 159.773 86.8355 160.365 86.8355 161.978C86.8355 163.59 85.9108 164.444 83.9902 164.444H82.0696ZM92.9166 172.458H96.4258V156.998H92.9166V172.458ZM100.025 172.458H109.96V169.518H103.534V165.961H108.798V163.045H103.534V159.939H109.723V156.998H100.025V172.458ZM111.997 172.458H123.188V169.518H116.312L123.141 159.109V156.998H112.637V159.939H118.825L111.997 170.348V172.458ZM129.022 166.056L129.401 164.633C129.828 163.092 130.255 161.29 130.611 159.654H130.706C131.132 161.266 131.535 163.092 131.962 164.633L132.342 166.056H129.022ZM134.001 172.458H137.7L132.84 156.998H128.666L123.806 172.458H127.362L128.311 168.783H133.053L134.001 172.458Z" fill="#004ABA"/>
<rect x="12.1446" width="119.711" height="114.506" rx="10.4096" fill="#1271FF"/>
<path d="M75.6627 54.8916V27.1807C75.6627 20.5301 80.0964 13.8795 88.9639 13.8795C97.8313 13.8795 102.265 20.5301 102.265 27.1807V80.3855" stroke="white" stroke-width="3.46988"/>
<path d="M90.6265 80.3856H113.904L115.566 93.6868H88.9638L90.6265 80.3856Z" fill="#2F88FF" stroke="white" stroke-width="3.46988" stroke-linecap="round" stroke-linejoin="round"/>
<path d="M40.1927 93.6868H75.4098C75.5495 93.6868 75.6625 93.5759 75.6625 93.434V56.5653C75.6625 40.3378 62.5076 27.1807 46.278 27.1807C42.9002 27.1807 39.6608 28.5225 37.2723 30.911C34.8839 33.2994 33.5421 36.5389 33.5421 39.9166V69.3012" stroke="white" stroke-width="3.46988" stroke-linecap="round" stroke-linejoin="round"/>
<path d="M40.1927 93.6868C47.5387 93.6868 53.4939 87.7316 53.4939 80.3856C53.4939 73.0395 47.5387 67.0844 40.1927 67.0844C32.8466 67.0844 26.8915 73.0395 26.8915 80.3856C26.8915 87.7316 32.8466 93.6868 40.1927 93.6868Z" fill="#2F88FF" stroke="white" stroke-width="3.46988"/>
<path d="M49.0602 27.1807V69.3012" stroke="white" stroke-width="3.46988" stroke-linecap="round" stroke-linejoin="round"/>
</svg>
